<?xml version="1.0" standalone="no"?>
<!DOCTYPE svg PUBLIC "-//W3C//DTD SVG 20010904//EN"
 "http://www.w3.org/TR/2001/REC-SVG-20010904/DTD/svg10.dtd">
<svg version="1.0" xmlns="http://www.w3.org/2000/svg"
 width="1280.000000pt" height="1280.000000pt" viewBox="0 0 1280.000000 1280.000000"
 preserveAspectRatio="xMidYMid meet">

<g transform="translate(0.000000,1280.000000) scale(0.100000,-0.100000)"
fill="#000000" stroke="none">
<path d="M0 6400 l0 -6400 6400 0 6400 0 0 6400 0 6400 -6400 0 -6400 0 0
-6400z m2316 6189 c356 -49 581 -223 661 -511 27 -98 24 -315 -6 -433 -42
-164 -115 -298 -225 -413 -159 -166 -397 -286 -621 -312 -53 -6 -368 -10 -766
-10 l-675 0 208 833 c115 457 211 838 213 845 6 16 1094 18 1211 1z m2386
-149 c14 -85 50 -285 78 -445 77 -438 118 -672 150 -860 17 -93 32 -182 36
-197 l6 -28 -356 0 -356 0 -4 23 c-3 12 -12 63 -21 112 -8 50 -18 100 -20 113
l-5 22 -353 0 -352 0 -74 -135 -75 -135 -249 0 -249 0 14 23 c8 12 228 392
488 845 l473 822 421 -2 421 -3 27 -155z m1473 -682 l-212 -843 -366 -3 c-269
-2 -367 1 -367 9 0 10 404 1632 415 1667 3 9 87 12 373 12 l368 0 -211 -842z
m1275 832 c0 -10 -113 -470 -126 -512 -3 -10 -1 -18 4 -18 5 0 148 121 318
270 l309 269 380 1 380 0 -25 -24 c-14 -13 -218 -191 -455 -396 -236 -204
-434 -377 -439 -384 -6 -8 93 -152 301 -437 170 -233 313 -430 317 -436 6 -10
-81 -13 -421 -13 l-429 0 -189 280 c-160 238 -205 298 -205 276 0 -5 -129
-517 -136 -538 -5 -17 -31 -18 -359 -18 l-353 0 209 832 c115 458 211 838 213
845 7 17 706 19 706 3z m2350 -1 c0 -9 -361 -1452 -411 -1641 l-10 -38 -368 0
-369 0 210 833 c115 457 211 838 213 845 6 17 735 18 735 1z m1379 -480 c90
-270 167 -487 171 -482 5 4 59 208 120 453 61 245 115 462 121 483 l10 37 254
0 c164 0 255 -4 255 -10 0 -8 -358 -1439 -411 -1642 l-10 -38 -407 0 -407 0
-67 198 c-37 108 -113 331 -169 495 -56 163 -105 297 -109 297 -4 0 -63 -223
-131 -495 l-124 -495 -252 0 c-162 0 -253 4 -253 10 0 8 362 1454 411 1643
l10 37 412 0 412 0 164 -491z m499 -1598 c-2 -4 -115 -114 -253 -243 -137
-129 -2590 -2427 -5450 -5107 -2860 -2681 -5221 -4894 -5247 -4920 l-48 -45 0
2545 0 2545 2792 2617 2792 2617 2709 0 c1520 0 2707 -4 2705 -9z"/>
<path d="M1790 12201 l-85 -6 -112 -440 c-61 -242 -112 -448 -112 -457 -1 -17
14 -18 187 -18 135 0 200 4 235 15 160 48 282 182 342 375 26 83 32 283 11
347 -22 68 -74 125 -136 152 -48 21 -168 42 -220 39 -14 -1 -63 -4 -110 -7z"/>
<path d="M4023 12098 c-45 -71 -271 -484 -267 -490 3 -4 88 -8 190 -8 176 0
184 1 184 20 0 10 -16 110 -36 222 -19 112 -38 218 -41 236 -6 34 -16 41 -30
20z"/>
</g>
</svg>
