<?xml version="1.0" standalone="no"?>
<!DOCTYPE svg PUBLIC "-//W3C//DTD SVG 20010904//EN"
 "http://www.w3.org/TR/2001/REC-SVG-20010904/DTD/svg10.dtd">
<svg version="1.0" xmlns="http://www.w3.org/2000/svg"
 width="1502.000000pt" height="932.000000pt" viewBox="0 0 1502.000000 932.000000"
 preserveAspectRatio="xMidYMid meet">

<g transform="translate(0.000000,932.000000) scale(0.100000,-0.100000)"
fill="#000000" stroke="none">
<path d="M7690 9304 c1 -5 1140 -2097 2534 -4649 l2532 -4640 1128 -3 c627 -1
1126 2 1124 7 -1 4 -1143 2092 -2536 4638 l-2534 4630 -356 7 c-720 12 -1892
19 -1892 10z"/>
<path d="M5066 9268 c-19 -31 -5056 -9250 -5056 -9254 0 -2 507 -3 1127 -2
l1126 3 2504 4580 c1377 2519 2517 4606 2534 4638 l29 57 -1125 0 -1125 0 -14
-22z"/>
</g>
</svg>
