<?xml version="1.0" standalone="no"?>
<!DOCTYPE svg PUBLIC "-//W3C//DTD SVG 20010904//EN"
 "http://www.w3.org/TR/2001/REC-SVG-20010904/DTD/svg10.dtd">
<svg version="1.0" xmlns="http://www.w3.org/2000/svg"
 width="295.000000pt" height="64.000000pt" viewBox="0 0 295.000000 64.000000"
 preserveAspectRatio="xMidYMid meet">

<g transform="translate(0.000000,64.000000) scale(0.100000,-0.100000)"
fill="#000000" stroke="none">
<path d="M350 445 c0 -23 4 -25 45 -25 l45 0 0 -125 0 -125 25 0 25 0 0 125 0
125 45 0 c41 0 45 2 45 25 l0 25 -115 0 -115 0 0 -25z"/>
<path d="M610 450 c0 -16 7 -20 30 -20 23 0 30 4 30 20 0 16 -7 20 -30 20 -23
0 -30 -4 -30 -20z"/>
<path d="M1193 455 c-72 -31 -99 -154 -50 -226 44 -66 142 -76 199 -19 33 34
35 46 7 55 -14 5 -27 -1 -44 -19 -29 -31 -73 -34 -106 -7 -21 16 -24 28 -24
81 0 53 3 65 24 81 32 26 77 24 104 -4 15 -16 29 -22 44 -18 20 5 21 8 10 31
-14 29 -70 60 -107 60 -14 -1 -40 -7 -57 -15z"/>
<path d="M1830 420 l0 -51 -30 16 c-41 21 -58 19 -91 -14 -25 -26 -29 -37 -29
-86 0 -49 4 -60 29 -86 33 -32 53 -36 94 -15 23 13 27 13 27 0 0 -8 10 -14 25
-14 l25 0 0 150 0 150 -25 0 c-23 0 -25 -3 -25 -50z m-18 -77 c39 -35 12 -133
-37 -133 -29 0 -45 26 -45 75 0 69 39 97 82 58z"/>
<path d="M1940 450 c0 -16 7 -20 30 -20 23 0 30 4 30 20 0 16 -7 20 -30 20
-23 0 -30 -4 -30 -20z"/>
<path d="M2582 328 c-37 -164 -37 -158 -17 -158 15 0 19 11 60 180 30 125 30
120 7 120 -15 0 -23 -24 -50 -142z"/>
<path d="M200 380 c-77 -34 -85 -40 -85 -65 0 -25 8 -31 89 -66 49 -22 93 -39
98 -39 4 0 8 8 8 19 0 13 -20 27 -70 50 -39 18 -68 36 -66 40 3 4 35 20 71 35
47 21 65 33 65 47 0 25 -11 23 -110 -21z"/>
<path d="M2680 401 c0 -17 16 -28 72 -53 l72 -32 -72 -33 c-57 -25 -72 -37
-72 -54 0 -14 5 -19 14 -16 7 3 52 22 100 43 71 31 86 41 86 59 0 19 -15 29
-85 59 -122 53 -115 51 -115 27z"/>
<path d="M800 380 c-16 -16 -20 -17 -20 -5 0 9 -9 15 -25 15 l-25 0 0 -110 0
-110 25 0 c24 0 25 2 25 71 0 81 11 109 44 109 28 0 43 35 19 44 -21 8 -21 8
-43 -14z"/>
<path d="M925 389 c-38 -23 -44 -44 -15 -52 12 -3 23 1 28 10 13 22 67 13 67
-11 0 -15 -11 -23 -48 -32 -62 -16 -77 -29 -77 -69 0 -54 54 -79 109 -51 27
15 31 15 31 1 0 -10 9 -15 26 -15 22 0 25 3 20 23 -3 12 -6 54 -6 93 0 42 -5
77 -13 88 -16 22 -94 31 -122 15z m85 -133 c0 -30 -22 -49 -52 -44 -36 5 -36
43 -1 56 43 16 53 14 53 -12z"/>
<path d="M1470 378 c-66 -45 -66 -141 0 -186 60 -40 138 -14 160 54 35 104
-72 192 -160 132z m101 -35 c8 -9 14 -35 14 -58 0 -51 -18 -75 -56 -75 -34 0
-59 32 -59 75 0 43 25 75 59 75 16 0 35 -7 42 -17z"/>
<path d="M2104 390 c-36 -14 -54 -50 -54 -108 0 -46 4 -58 29 -83 33 -32 53
-36 94 -15 27 15 27 14 27 -15 0 -38 -18 -45 -89 -32 -31 6 -57 10 -59 8 -1
-1 6 -13 17 -26 17 -21 28 -24 81 -24 92 0 100 13 100 171 0 116 -1 124 -19
124 -11 0 -21 -5 -23 -12 -3 -8 -11 -7 -28 5 -27 19 -44 20 -76 7z m78 -47
c23 -21 24 -89 1 -115 -21 -24 -60 -23 -73 1 -5 11 -10 36 -10 56 0 69 39 97
82 58z"/>
<path d="M2365 387 c-37 -17 -60 -58 -59 -106 2 -52 20 -80 61 -98 78 -32 153
18 153 103 0 82 -80 134 -155 101z m89 -49 c33 -46 9 -128 -36 -128 -35 0 -58
29 -58 73 0 69 60 104 94 55z"/>
<path d="M610 280 l0 -110 30 0 30 0 0 110 0 110 -30 0 -30 0 0 -110z"/>
<path d="M1940 280 l0 -110 30 0 30 0 0 110 0 110 -30 0 -30 0 0 -110z"/>
</g>
</svg>
