<?xml version="1.0" standalone="no"?>
<!DOCTYPE svg PUBLIC "-//W3C//DTD SVG 20010904//EN"
 "http://www.w3.org/TR/2001/REC-SVG-20010904/DTD/svg10.dtd">
<svg version="1.0" xmlns="http://www.w3.org/2000/svg"
 width="250.000000pt" height="250.000000pt" viewBox="0 0 250.000000 250.000000"
 preserveAspectRatio="xMidYMid meet">

<g transform="translate(0.000000,250.000000) scale(0.100000,-0.100000)"
fill="#000000" stroke="none">
<path d="M1105 2174 c-116 -17 -164 -28 -236 -55 l-81 -31 4 -312 c4 -291 6
-316 27 -381 31 -96 81 -175 149 -235 65 -59 165 -121 234 -147 l48 -17 67 33
c149 73 256 168 309 276 56 114 64 173 64 496 l0 287 -51 21 c-103 45 -196 62
-354 66 -82 2 -163 1 -180 -1z m352 -60 c42 -8 100 -24 130 -35 l53 -20 0
-210 0 -209 -22 4 c-13 3 -54 10 -92 16 -38 6 -86 20 -108 31 -30 15 -43 17
-59 9 -11 -7 -42 -18 -67 -25 -40 -12 -55 -12 -98 -1 -28 7 -59 18 -69 24 -14
7 -30 5 -64 -10 -45 -20 -198 -49 -213 -41 -5 2 -8 95 -8 207 0 234 -13 208
121 244 103 29 106 29 272 31 100 1 172 -4 224 -15z m-427 -544 c30 -17 62
-30 70 -30 8 0 40 13 70 30 30 16 62 29 70 30 8 0 40 -13 70 -30 67 -36 75
-36 132 -6 75 40 84 40 144 10 46 -23 54 -31 54 -55 0 -38 -13 -43 -52 -19
-44 27 -84 25 -133 -5 -51 -31 -90 -31 -140 0 -51 31 -90 31 -140 0 -23 -14
-55 -24 -75 -24 -20 0 -52 10 -75 24 -49 30 -87 32 -132 4 -39 -24 -38 -24
-47 16 -6 29 -4 32 46 58 29 14 60 27 68 26 8 0 40 -13 70 -29z m-40 -175 l24
-26 -26 -26 c-23 -22 -29 -24 -42 -13 -14 10 -16 10 -16 -6 0 -11 7 -28 15
-38 14 -19 15 -19 35 -1 20 18 20 18 20 -35 l0 -53 -21 19 c-39 34 -79 96 -79
122 0 23 43 82 60 82 4 0 17 -11 30 -25z m137 3 c13 -12 23 -27 23 -33 0 -19
-38 -48 -55 -42 -18 8 -21 -23 -3 -41 9 -9 16 -8 30 5 17 15 18 14 18 -19 0
-39 -21 -64 -45 -54 -18 7 -21 -24 -3 -42 9 -9 16 -8 30 5 17 15 18 14 18 -30
0 -26 -3 -47 -6 -47 -3 0 -25 14 -50 30 l-44 31 0 101 c0 97 1 103 27 130 15
15 29 28 32 28 2 0 15 -10 28 -22z m172 -26 c12 -7 -46 -53 -61 -49 -22 6 -25
-25 -4 -42 10 -9 16 -8 26 4 18 22 26 19 25 -10 -2 -35 -34 -68 -52 -54 -10 9
-13 7 -13 -9 0 -29 24 -46 40 -27 15 19 27 12 25 -14 -2 -32 -35 -63 -52 -50
-10 9 -13 7 -13 -9 0 -29 24 -46 40 -27 12 15 30 12 30 -6 0 -21 -48 -32 -80
-19 l-30 12 0 148 0 149 32 25 33 25 25 -22 c14 -12 27 -23 29 -25z m140 0
c12 -7 -46 -53 -61 -49 -22 6 -25 -25 -4 -42 10 -9 16 -8 26 4 19 23 30 18 30
-13 0 -33 -32 -67 -55 -59 -19 8 -21 -26 -1 -42 10 -9 16 -8 26 4 17 21 30 19
30 -5 0 -13 -16 -31 -47 -50 -26 -17 -51 -30 -55 -30 -4 0 -8 62 -8 138 l0
137 32 27 33 27 25 -22 c14 -12 27 -23 29 -25z m141 -1 c0 -2 -10 -15 -22 -28
-24 -25 -44 -30 -51 -10 -3 6 -6 0 -6 -14 -1 -15 6 -32 14 -39 13 -10 19 -9
37 6 21 19 21 19 9 -4 -7 -13 -31 -42 -54 -65 l-42 -42 -3 94 -3 94 33 27 32
27 28 -20 c15 -12 28 -23 28 -26z"/>
<path d="M1118 2067 c-45 -8 -58 -14 -58 -28 0 -9 -6 -19 -12 -21 -8 -3 -15
-33 -18 -76 l-5 -72 26 0 c14 0 51 5 83 11 38 7 67 7 85 1 17 -6 34 -6 44 -1
10 6 48 5 101 -3 47 -6 88 -9 91 -6 3 3 2 37 -1 77 -5 50 -11 71 -20 71 -8 0
-14 8 -14 19 0 14 -10 20 -47 26 -76 11 -193 12 -255 2z m96 -13 c12 -5 16
-21 16 -69 l0 -62 -76 -7 c-42 -4 -78 -5 -81 -3 -2 3 -1 32 2 64 l7 60 52 10
c28 5 54 11 58 11 3 1 13 -1 22 -4z m142 -10 c39 -6 42 -9 48 -43 3 -20 6 -49
6 -65 l0 -28 -57 7 c-32 4 -67 8 -78 9 -17 1 -20 9 -23 54 -4 61 11 87 42 78
12 -4 40 -9 62 -12z"/>
<path d="M520 776 c0 -49 17 -69 52 -64 20 3 23 9 26 56 2 31 -1 52 -7 52 -6
0 -11 -20 -11 -45 0 -32 -4 -45 -14 -45 -17 0 -26 22 -26 61 0 16 -4 29 -10
29 -5 0 -10 -20 -10 -44z"/>
<path d="M660 765 c0 -30 5 -55 10 -55 6 0 10 12 10 28 l1 27 20 -27 c11 -16
25 -28 30 -28 5 0 9 25 9 55 0 30 -4 55 -10 55 -5 0 -10 -12 -10 -27 l-1 -28
-20 28 c-11 15 -25 27 -30 27 -5 0 -9 -25 -9 -55z"/>
<path d="M800 765 c0 -30 5 -55 10 -55 6 0 10 25 10 55 0 30 -4 55 -10 55 -5
0 -10 -25 -10 -55z"/>
<path d="M883 793 c8 -42 26 -83 35 -83 10 0 46 99 39 106 -10 10 -27 -7 -27
-26 0 -32 -18 -32 -25 0 -8 38 -30 40 -22 3z"/>
<path d="M1010 765 l0 -55 35 0 c19 0 35 5 35 10 0 6 -11 10 -25 10 -14 0 -25
5 -25 10 0 6 9 10 20 10 11 0 20 5 20 10 0 6 -9 10 -20 10 -11 0 -20 7 -20 15
0 9 9 15 25 15 14 0 25 5 25 10 0 6 -16 10 -35 10 l-35 0 0 -55z"/>
<path d="M1140 765 c0 -30 5 -55 10 -55 6 0 10 9 10 20 0 11 4 20 9 20 5 0 13
-9 16 -20 3 -11 13 -20 21 -20 11 0 12 5 5 18 -5 9 -7 30 -4 46 6 31 -8 46
-44 46 -21 0 -23 -5 -23 -55z m48 17 c2 -7 -3 -12 -12 -12 -9 0 -16 7 -16 16
0 17 22 14 28 -4z"/>
<path d="M1283 814 c-7 -3 -13 -16 -13 -30 0 -17 7 -25 25 -30 35 -9 31 -24
-7 -24 -23 0 -29 -3 -21 -11 6 -6 23 -9 39 -7 40 4 46 44 10 58 -30 11 -35 33
-6 28 10 -2 20 2 22 7 3 11 -30 17 -49 9z"/>
<path d="M1396 813 c-3 -3 -6 -28 -6 -55 0 -36 4 -48 15 -48 11 0 15 12 15 49
0 47 -9 68 -24 54z"/>
<path d="M1470 810 c0 -5 7 -10 15 -10 11 0 15 -12 15 -45 0 -25 5 -45 10 -45
6 0 10 20 10 45 0 33 4 45 15 45 8 0 15 5 15 10 0 6 -18 10 -40 10 -22 0 -40
-4 -40 -10z"/>
<path d="M1610 779 c12 -23 19 -47 16 -55 -3 -8 1 -14 9 -14 9 0 15 10 15 25
0 15 7 39 15 55 13 26 14 30 1 30 -8 0 -18 -9 -21 -21 l-7 -21 -15 21 c-25 37
-34 23 -13 -20z"/>
<path d="M1791 806 c-7 -8 -11 -32 -9 -53 2 -31 7 -39 26 -41 31 -5 52 15 52
49 0 47 -44 76 -69 45z m39 -41 c0 -24 -5 -35 -15 -35 -15 0 -22 50 -8 63 15
15 23 5 23 -28z"/>
<path d="M1910 765 c0 -30 5 -55 10 -55 6 0 10 9 10 20 0 15 7 20 25 20 31 0
33 17 3 22 -13 2 -23 8 -23 13 0 6 10 11 23 13 35 5 26 22 -13 22 l-35 0 0
-55z"/>
<path d="M748 638 c17 -17 16 -200 0 -216 -10 -10 5 -12 77 -10 l90 3 3 28 3
27 -25 -25 c-27 -27 -64 -33 -84 -13 -8 8 -12 46 -12 105 0 77 3 94 18 102 13
8 6 10 -32 11 -39 0 -47 -3 -38 -12z"/>
<path d="M953 639 c14 -8 17 -25 17 -109 0 -84 -3 -101 -17 -109 -24 -14 95
-15 131 -1 39 14 53 53 32 85 -9 14 -23 25 -32 25 -10 0 -6 7 12 23 22 19 26
29 20 51 -8 34 -40 46 -119 46 -47 -1 -58 -3 -44 -11z m111 -15 c33 -32 14
-84 -31 -84 -21 0 -23 4 -23 50 0 43 3 50 19 50 11 0 27 -7 35 -16z m6 -114
c11 -11 20 -29 20 -39 0 -27 -28 -53 -54 -49 -18 3 -21 11 -24 56 -3 47 -1 52
17 52 12 0 30 -9 41 -20z"/>
<path d="M1173 639 c14 -8 17 -25 17 -109 0 -84 -3 -101 -17 -109 -13 -8 6
-10 72 -8 l90 2 3 30 4 30 -22 -28 c-17 -22 -29 -27 -54 -25 -30 3 -31 5 -34
56 -3 50 -2 52 22 52 14 0 30 -8 35 -17 8 -14 10 -10 10 22 0 32 -2 36 -10 23
-5 -10 -21 -18 -34 -18 -23 0 -25 4 -25 50 0 48 1 50 27 50 14 0 35 -7 45 -17
17 -15 18 -15 18 5 0 21 -5 22 -82 22 -61 -1 -78 -3 -65 -11z"/>
<path d="M1394 634 c12 -12 16 -37 16 -104 0 -67 -4 -92 -16 -104 -14 -15 -11
-16 31 -16 42 0 45 1 31 16 -9 9 -16 32 -16 55 0 33 3 40 17 37 10 -2 26 -20
35 -40 19 -40 52 -68 80 -68 17 0 17 1 -2 20 -10 10 -28 37 -39 59 -20 38 -20
39 -2 52 33 24 35 56 7 84 -22 22 -34 25 -91 25 -60 0 -65 -1 -51 -16z m110
-16 c21 -30 20 -51 -3 -72 -35 -32 -56 -17 -59 42 -3 50 -2 52 22 52 14 0 31
-9 40 -22z"/>
<path d="M1584 618 c-1 -33 -1 -33 14 -10 9 14 24 22 43 22 l29 0 0 -100 c0
-84 -3 -101 -17 -109 -14 -8 -7 -10 32 -11 38 0 46 3 37 12 -8 8 -12 47 -12
110 l0 98 30 0 c19 0 33 -7 40 -21 15 -27 23 -19 14 15 -6 26 -7 26 -108 26
l-101 0 -1 -32z"/>
<path d="M545 543 c-21 -53 -47 -105 -57 -115 -17 -17 -17 -18 18 -18 30 0 34
3 25 14 -8 10 -8 21 -1 40 9 24 14 27 52 24 36 -3 43 -7 51 -32 7 -21 6 -30
-4 -37 -9 -6 3 -9 35 -9 l49 0 -19 23 c-11 12 -38 64 -59 115 -22 50 -42 92
-45 92 -3 0 -23 -44 -45 -97z m50 5 c7 -18 11 -36 9 -40 -7 -11 -54 -10 -54 1
0 13 21 71 26 71 3 0 11 -15 19 -32z"/>
<path d="M1849 549 c-18 -50 -44 -102 -56 -115 l-22 -24 41 0 c36 0 40 2 24
13 -14 10 -15 17 -7 40 10 26 15 28 53 25 36 -3 44 -7 52 -31 8 -22 7 -30 -4
-37 -11 -7 0 -10 33 -10 l48 0 -20 28 c-11 15 -36 66 -57 115 -21 48 -40 87
-44 87 -3 0 -22 -41 -41 -91z m45 7 c3 -13 9 -31 12 -40 5 -13 -1 -16 -25 -16
-35 0 -36 1 -19 47 14 39 24 42 32 9z"/>
</g>
</svg>
