<?xml version="1.0" standalone="no"?>
<!DOCTYPE svg PUBLIC "-//W3C//DTD SVG 20010904//EN"
 "http://www.w3.org/TR/2001/REC-SVG-20010904/DTD/svg10.dtd">
<svg version="1.0" xmlns="http://www.w3.org/2000/svg"
 width="356.000000pt" height="456.000000pt" viewBox="0 0 356.000000 456.000000"
 preserveAspectRatio="xMidYMid meet">

<g transform="translate(0.000000,456.000000) scale(0.100000,-0.100000)"
fill="#000000" stroke="none">
<path d="M1416 4550 c-526 -33 -992 -147 -1359 -332 l-58 -29 4 -1087 c3
-1068 4 -1089 26 -1226 61 -384 182 -694 377 -967 151 -213 475 -481 814 -674
119 -68 349 -179 437 -211 l74 -27 87 33 c276 104 654 329 916 544 396 327
615 745 707 1351 9 58 13 383 16 1172 l4 1092 -71 36 c-314 158 -728 268
-1165 310 -196 19 -621 27 -809 15z m829 -214 c351 -39 681 -121 930 -230 l80
-35 3 -695 2 -694 -103 -41 c-56 -22 -152 -54 -212 -72 -104 -30 -113 -31
-170 -19 -92 18 -278 82 -401 137 l-111 50 -38 -19 c-154 -80 -452 -174 -519
-165 -63 9 -309 91 -416 140 l-95 43 -105 -47 c-127 -57 -278 -110 -380 -134
l-76 -18 -111 31 c-61 17 -159 50 -217 73 l-106 42 2 695 3 695 134 54 c297
119 638 193 1026 222 175 14 713 5 880 -13z m-1464 -2058 c30 -14 95 -51 144
-82 112 -70 204 -101 284 -93 82 9 117 21 211 77 47 28 119 67 160 88 67 33
83 37 150 37 90 0 119 -11 265 -99 232 -141 329 -139 573 8 211 128 306 127
517 -10 34 -21 85 -50 115 -64 30 -13 56 -25 58 -26 4 -2 -15 -182 -24 -231
-4 -18 -11 -33 -17 -33 -5 0 -55 27 -109 61 -254 156 -325 154 -598 -11 -105
-63 -171 -83 -259 -78 -71 4 -154 38 -280 118 -89 55 -164 82 -236 83 -77 1
-144 -22 -247 -84 -154 -93 -197 -112 -274 -117 -96 -6 -156 13 -289 94 -142
86 -194 106 -275 107 -87 1 -144 -20 -280 -103 -111 -68 -140 -80 -140 -61 0
5 -4 43 -9 83 -5 40 -12 96 -15 124 l-5 50 37 14 c20 7 86 42 145 78 60 36
132 74 160 84 70 25 165 19 238 -14z m-18 -753 c53 -44 96 -85 96 -91 1 -7
-45 -55 -100 -108 l-102 -97 -56 53 -56 53 -3 -89 -3 -90 58 -58 57 -58 73 72
73 72 0 -202 c0 -238 7 -232 -114 -100 -93 101 -169 205 -230 317 -42 76 -46
90 -46 151 l0 67 116 101 c73 63 121 99 129 94 7 -4 55 -43 108 -87z m526 13
c53 -44 102 -86 108 -92 10 -9 -11 -35 -91 -115 l-104 -104 -55 52 c-29 28
-57 51 -60 51 -4 0 -7 -38 -7 -85 l0 -85 63 -59 62 -60 73 72 72 71 0 -115 0
-115 -75 -74 -75 -74 -53 52 c-29 29 -56 52 -60 52 -4 0 -7 -37 -7 -83 l0 -83
63 -62 63 -63 63 71 c34 38 67 70 72 70 5 0 9 -77 9 -181 0 -168 -1 -181 -18
-177 -24 7 -179 104 -287 180 l-90 64 -3 385 -2 385 117 102 c65 56 120 102
122 102 1 0 46 -37 100 -82z m556 -12 l107 -89 -103 -103 -103 -104 -26 23
c-14 12 -40 35 -57 51 l-33 30 0 -84 0 -84 52 -53 c29 -29 57 -53 62 -53 6 0
41 30 78 67 l68 67 0 -110 0 -110 -73 -72 -73 -72 -57 51 -57 51 0 -89 0 -89
54 -53 55 -54 75 68 76 67 0 -103 0 -104 -76 -69 -76 -69 -54 54 -54 53 0 -84
0 -84 57 -58 57 -58 73 72 73 72 0 -65 0 -66 -77 -33 c-89 -37 -80 -38 -235
33 l-88 40 0 551 1 551 117 102 c64 56 120 101 124 100 4 -1 55 -42 113 -91z
m548 -4 c53 -46 97 -87 97 -92 0 -4 -46 -50 -103 -102 l-102 -95 -55 49 -55
49 -3 -87 -3 -88 58 -58 57 -58 73 72 73 72 0 -120 0 -120 -69 -68 -70 -69
-60 52 -61 53 0 -88 0 -88 57 -58 57 -58 73 72 73 72 0 -86 0 -86 -47 -34
c-53 -37 -195 -126 -285 -177 l-58 -32 0 534 0 535 116 101 c69 60 120 98 127
94 7 -4 56 -45 110 -91z m540 3 l106 -90 -104 -105 -105 -105 -53 53 c-29 28
-56 52 -60 52 -4 0 -7 -40 -7 -88 l0 -88 60 -59 60 -59 75 74 c86 85 100 76
33 -23 -68 -101 -152 -200 -240 -282 -131 -122 -118 -151 -118 258 l0 354 118
101 c64 56 120 101 123 99 3 -1 53 -42 112 -92z"/>
<path d="M1385 4138 c-91 -25 -131 -30 -232 -31 l-122 -2 -6 -75 c-9 -111 -6
-105 -47 -104 -36 1 -37 0 -43 -40 -9 -75 -45 -472 -45 -506 l0 -33 138 5 c97
4 188 15 311 38 162 31 179 33 243 22 38 -7 86 -21 107 -31 l38 -20 61 25 c91
36 161 40 283 15 188 -38 292 -51 402 -51 l109 0 -6 28 c-3 15 -14 135 -26
267 -12 132 -23 250 -25 261 -4 17 -12 21 -42 20 -37 -1 -38 0 -40 39 -2 22
-5 63 -8 90 l-6 50 -117 1 c-97 1 -139 7 -242 34 -146 37 -217 38 -293 1 l-47
-23 -52 26 c-70 35 -148 34 -293 -6z m255 -88 l40 -20 0 -235 0 -234 -32 10
c-56 16 -149 10 -248 -16 -101 -26 -295 -53 -306 -42 -4 3 2 114 11 245 l18
239 81 6 c45 3 131 19 191 35 136 36 193 39 245 12z m415 -11 c66 -16 157 -33
203 -36 49 -4 82 -10 82 -17 0 -6 7 -113 17 -238 9 -125 14 -231 10 -235 -11
-11 -192 14 -307 43 -104 25 -217 30 -262 10 -17 -8 -18 7 -18 226 l0 234 38
22 c50 29 95 28 237 -9z"/>
</g>
</svg>
